<?xml version="1.0" standalone="no"?><!DOCTYPE svg PUBLIC "-//W3C//DTD SVG 1.1//EN" "http://www.w3.org/Graphics/SVG/1.1/DTD/svg11.dtd"><svg t="1663646953094" class="icon" viewBox="0 0 1024 1024" version="1.1" xmlns="http://www.w3.org/2000/svg" p-id="1283" xmlns:xlink="http://www.w3.org/1999/xlink" width="200" height="200"><path d="M448.1 192.7S378.4 189.5 334 247c-44.5 57.4-11.1 145.1 10 190.4 21.1 45.2 132.3 222.8 136.4 226.7 4.1 3.9 8.9 2.3 9.2-1.2 0.3-3.5 12.7-258 2.7-320.7-10.1-62.9-39.7-142.6-44.2-149.5zM207.3 311c-8 0.9-65.1 57.9-70.3 113.6-5.2 55.7 18.7 92.8 85.3 137.2 67 47.5 226.4 135 229.3 127.5 2.9-7.5-61.7-122.4-114.7-206C284 399.7 215.2 310.2 207.3 311z m21.4 514.1c48.2 21.6 123.3-26.9 144.1-40.9 19.3-14.8 55-41.9 55-41.9l-273.2 7.3s25.9 53.9 74.1 75.5z m6.8-220.8C186.6 579.8 86 523.6 82.1 524.7c-3.9 1.1-19.1 71 12.4 123.8 31.5 52.7 92.7 68.8 120.9 73.2 31.6 4.5 217.5 2.5 216.3-1.2-1.2-3.4-147.2-91.7-196.2-116.2zM688.9 247c-44.4-57.4-114.1-54.3-114.1-54.3-4.5 6.9-34.2 86.6-44.2 149.4-10 62.8 2.5 317.3 2.7 320.7 0.3 3.5 5.1 5.2 9.2 1.2 4.1-3.9 115.3-181.5 136.4-226.7 21-45.2 54.4-132.9 10-190.3z m251.8 277.7c-3.9-1.1-104.5 55.2-153.4 79.6-48.9 24.5-194.9 112.8-196 116-1.3 3.7 184.6 5.8 216.2 1.2 28.1-4.3 89.4-20.4 120.9-73.2 31.4-52.6 16.3-122.6 12.3-123.6zM650 784.2c20.8 14.1 95.9 62.5 144.2 40.9 48.2-21.6 74.1-75.5 74.1-75.5L595 742.3s35.7 27.1 55 41.9z m235.9-359.6c-5.2-55.7-62.3-112.7-70.3-113.6-8-0.8-76.8 88.7-129.7 172.2-52.9 83.6-117.6 198.5-114.7 206 2.9 7.5 162.3-79.9 229.3-127.5 66.7-44.3 90.6-81.3 85.4-137.1z m0 0" fill="#E40012" p-id="1284"></path></svg>